<mxfile host="app.diagrams.net" modified="2024-06-19T22:21:25.061Z" agent="Mozilla/5.0 (Windows NT 10.0; Win64; x64) AppleWebKit/537.36 (KHTML, like Gecko) Chrome/123.0.0.0 Safari/537.36 OPR/109.0.0.0" etag="129tgVv2rrSPpwNAIFYm" version="24.5.5" type="device">
  <diagram name="Página-1" id="8n8IsKH4eI0FIfOJGMiw">
    <mxGraphModel dx="928" dy="538" grid="0" gridSize="10" guides="1" tooltips="1" connect="1" arrows="1" fold="1" page="1" pageScale="1" pageWidth="827" pageHeight="1169" math="0" shadow="0">
      <root>
        <mxCell id="0" />
        <mxCell id="1" parent="0" />
        <mxCell id="cMItMVhZmOPaR7eOhh5o-3" value="" style="edgeStyle=orthogonalEdgeStyle;rounded=0;orthogonalLoop=1;jettySize=auto;fontColor=default;labelBackgroundColor=none;textShadow=0;labelBorderColor=none;html=1;" parent="1" source="cMItMVhZmOPaR7eOhh5o-1" target="cMItMVhZmOPaR7eOhh5o-2" edge="1">
          <mxGeometry relative="1" as="geometry" />
        </mxCell>
        <mxCell id="cMItMVhZmOPaR7eOhh5o-1" value="" style="ellipse;whiteSpace=wrap;html=1;aspect=fixed;labelBackgroundColor=default;textShadow=0;labelBorderColor=none;fillColor=#6d8764;strokeColor=#3A5431;fontColor=#ffffff;" parent="1" vertex="1">
          <mxGeometry x="429" y="10" width="50" height="50" as="geometry" />
        </mxCell>
        <mxCell id="cMItMVhZmOPaR7eOhh5o-8" value="" style="edgeStyle=orthogonalEdgeStyle;rounded=0;orthogonalLoop=1;jettySize=auto;fontColor=default;labelBackgroundColor=none;textShadow=0;labelBorderColor=default;html=1;" parent="1" source="cMItMVhZmOPaR7eOhh5o-2" target="cMItMVhZmOPaR7eOhh5o-7" edge="1">
          <mxGeometry relative="1" as="geometry" />
        </mxCell>
        <mxCell id="cMItMVhZmOPaR7eOhh5o-2" value="tela inicial cadastro" style="rounded=0;labelBackgroundColor=none;textShadow=0;labelBorderColor=default;fillColor=#76608a;fontColor=default;strokeColor=#432D57;whiteSpace=wrap;html=1;" parent="1" vertex="1">
          <mxGeometry x="394" y="90" width="120" height="60" as="geometry" />
        </mxCell>
        <mxCell id="cMItMVhZmOPaR7eOhh5o-12" value="email válido?" style="edgeStyle=orthogonalEdgeStyle;rounded=0;orthogonalLoop=1;jettySize=auto;fontColor=default;labelBackgroundColor=none;textShadow=0;labelBorderColor=default;html=1;" parent="1" source="cMItMVhZmOPaR7eOhh5o-7" target="cMItMVhZmOPaR7eOhh5o-9" edge="1">
          <mxGeometry relative="1" as="geometry" />
        </mxCell>
        <mxCell id="cMItMVhZmOPaR7eOhh5o-7" value="inserir email" style="rounded=0;fontColor=default;labelBackgroundColor=none;textShadow=0;labelBorderColor=default;fillColor=#76608a;strokeColor=#432D57;whiteSpace=wrap;html=1;" parent="1" vertex="1">
          <mxGeometry x="394" y="190" width="120" height="60" as="geometry" />
        </mxCell>
        <mxCell id="cMItMVhZmOPaR7eOhh5o-13" value="sim" style="edgeStyle=orthogonalEdgeStyle;rounded=0;orthogonalLoop=1;jettySize=auto;fontColor=default;labelBackgroundColor=none;textShadow=0;labelBorderColor=default;html=1;" parent="1" source="cMItMVhZmOPaR7eOhh5o-9" target="cMItMVhZmOPaR7eOhh5o-11" edge="1">
          <mxGeometry relative="1" as="geometry" />
        </mxCell>
        <mxCell id="cMItMVhZmOPaR7eOhh5o-14" value="não" style="edgeStyle=orthogonalEdgeStyle;rounded=0;orthogonalLoop=1;jettySize=auto;fontColor=default;labelBackgroundColor=none;textShadow=0;labelBorderColor=default;html=1;" parent="1" source="cMItMVhZmOPaR7eOhh5o-9" target="cMItMVhZmOPaR7eOhh5o-10" edge="1">
          <mxGeometry relative="1" as="geometry" />
        </mxCell>
        <mxCell id="cMItMVhZmOPaR7eOhh5o-9" value="" style="rhombus;fontColor=#ffffff;labelBackgroundColor=none;textShadow=0;labelBorderColor=default;whiteSpace=wrap;html=1;fillColor=#6d8764;strokeColor=#3A5431;" parent="1" vertex="1">
          <mxGeometry x="423" y="290" width="61" height="60" as="geometry" />
        </mxCell>
        <mxCell id="cMItMVhZmOPaR7eOhh5o-16" style="edgeStyle=orthogonalEdgeStyle;rounded=0;orthogonalLoop=1;jettySize=auto;html=1;entryX=0;entryY=0.5;entryDx=0;entryDy=0;fontColor=default;labelBackgroundColor=default;textShadow=0;labelBorderColor=none;" parent="1" source="cMItMVhZmOPaR7eOhh5o-10" target="cMItMVhZmOPaR7eOhh5o-2" edge="1">
          <mxGeometry relative="1" as="geometry">
            <Array as="points">
              <mxPoint x="240" y="400" />
              <mxPoint x="240" y="120" />
            </Array>
          </mxGeometry>
        </mxCell>
        <mxCell id="cMItMVhZmOPaR7eOhh5o-10" value="mensagem de erro" style="rounded=0;fontColor=default;labelBackgroundColor=none;textShadow=0;labelBorderColor=default;fillColor=#76608a;strokeColor=#432D57;whiteSpace=wrap;html=1;" parent="1" vertex="1">
          <mxGeometry x="274" y="370" width="120" height="60" as="geometry" />
        </mxCell>
        <mxCell id="cMItMVhZmOPaR7eOhh5o-27" value="" style="edgeStyle=orthogonalEdgeStyle;rounded=0;orthogonalLoop=1;jettySize=auto;entryX=0.5;entryY=0;entryDx=0;entryDy=0;fontColor=default;labelBackgroundColor=none;textShadow=0;labelBorderColor=default;html=1;" parent="1" source="cMItMVhZmOPaR7eOhh5o-11" target="cMItMVhZmOPaR7eOhh5o-22" edge="1">
          <mxGeometry relative="1" as="geometry" />
        </mxCell>
        <mxCell id="yuVx5asPF193CAsE93iu-1" value="senha válida?" style="edgeLabel;align=center;verticalAlign=middle;resizable=0;points=[];fontColor=default;labelBackgroundColor=none;textShadow=0;labelBorderColor=default;html=1;" parent="cMItMVhZmOPaR7eOhh5o-27" vertex="1" connectable="0">
          <mxGeometry x="0.2429" y="2" relative="1" as="geometry">
            <mxPoint as="offset" />
          </mxGeometry>
        </mxCell>
        <mxCell id="cMItMVhZmOPaR7eOhh5o-11" value="inserir senha" style="rounded=0;fontColor=default;labelBackgroundColor=none;textShadow=0;labelBorderColor=default;fillColor=#76608a;strokeColor=#432D57;whiteSpace=wrap;html=1;" parent="1" vertex="1">
          <mxGeometry x="540" y="370" width="120" height="60" as="geometry" />
        </mxCell>
        <mxCell id="cMItMVhZmOPaR7eOhh5o-25" value="sim" style="edgeStyle=orthogonalEdgeStyle;rounded=0;orthogonalLoop=1;jettySize=auto;exitX=1;exitY=0.5;exitDx=0;exitDy=0;entryX=0.5;entryY=1;entryDx=0;entryDy=0;fontColor=default;labelBackgroundColor=none;textShadow=0;labelBorderColor=default;html=1;" parent="1" source="cMItMVhZmOPaR7eOhh5o-22" target="cMItMVhZmOPaR7eOhh5o-29" edge="1">
          <mxGeometry relative="1" as="geometry">
            <mxPoint x="600" y="520" as="targetPoint" />
            <Array as="points">
              <mxPoint x="610" y="490" />
            </Array>
          </mxGeometry>
        </mxCell>
        <mxCell id="cMItMVhZmOPaR7eOhh5o-26" value="não" style="edgeStyle=orthogonalEdgeStyle;rounded=0;orthogonalLoop=1;jettySize=auto;entryX=0.5;entryY=1;entryDx=0;entryDy=0;fontColor=default;labelBackgroundColor=none;textShadow=0;labelBorderColor=default;html=1;" parent="1" source="cMItMVhZmOPaR7eOhh5o-22" target="cMItMVhZmOPaR7eOhh5o-10" edge="1">
          <mxGeometry relative="1" as="geometry" />
        </mxCell>
        <mxCell id="cMItMVhZmOPaR7eOhh5o-22" value="" style="rhombus;fontColor=#ffffff;labelBackgroundColor=none;textShadow=0;labelBorderColor=default;whiteSpace=wrap;html=1;fillColor=#6d8764;strokeColor=#3A5431;" parent="1" vertex="1">
          <mxGeometry x="430" y="460" width="60" height="60" as="geometry" />
        </mxCell>
        <mxCell id="cMItMVhZmOPaR7eOhh5o-35" value="" style="edgeStyle=orthogonalEdgeStyle;rounded=0;orthogonalLoop=1;jettySize=auto;entryX=0.5;entryY=0;entryDx=0;entryDy=0;fontColor=default;labelBackgroundColor=none;textShadow=0;labelBorderColor=default;html=1;" parent="1" source="cMItMVhZmOPaR7eOhh5o-29" target="cMItMVhZmOPaR7eOhh5o-31" edge="1">
          <mxGeometry relative="1" as="geometry" />
        </mxCell>
        <mxCell id="cMItMVhZmOPaR7eOhh5o-29" value="reclamação" style="rounded=0;direction=west;fontColor=default;labelBackgroundColor=none;textShadow=0;labelBorderColor=default;fillColor=#76608a;strokeColor=#432D57;whiteSpace=wrap;html=1;" parent="1" vertex="1">
          <mxGeometry x="550" y="520" width="120" height="60" as="geometry" />
        </mxCell>
        <mxCell id="cMItMVhZmOPaR7eOhh5o-37" value="preenchido" style="edgeStyle=orthogonalEdgeStyle;rounded=0;orthogonalLoop=1;jettySize=auto;fontColor=default;labelBackgroundColor=none;textShadow=0;labelBorderColor=default;html=1;" parent="1" source="cMItMVhZmOPaR7eOhh5o-31" target="cMItMVhZmOPaR7eOhh5o-36" edge="1">
          <mxGeometry relative="1" as="geometry" />
        </mxCell>
        <mxCell id="cMItMVhZmOPaR7eOhh5o-31" value="reclamação" style="rounded=0;fontColor=default;labelBackgroundColor=none;textShadow=0;labelBorderColor=default;fillColor=#76608a;strokeColor=#432D57;whiteSpace=wrap;html=1;" parent="1" vertex="1">
          <mxGeometry x="400" y="590" width="120" height="60" as="geometry" />
        </mxCell>
        <mxCell id="cMItMVhZmOPaR7eOhh5o-40" value="sim" style="edgeStyle=orthogonalEdgeStyle;rounded=0;orthogonalLoop=1;jettySize=auto;entryX=0.5;entryY=0;entryDx=0;entryDy=0;fontColor=default;labelBackgroundColor=none;textShadow=0;labelBorderColor=default;html=1;" parent="1" source="cMItMVhZmOPaR7eOhh5o-36" target="cMItMVhZmOPaR7eOhh5o-39" edge="1">
          <mxGeometry relative="1" as="geometry" />
        </mxCell>
        <mxCell id="cMItMVhZmOPaR7eOhh5o-41" value="não" style="edgeStyle=orthogonalEdgeStyle;rounded=0;orthogonalLoop=1;jettySize=auto;entryX=0.5;entryY=0;entryDx=0;entryDy=0;fontColor=default;labelBackgroundColor=none;textShadow=0;labelBorderColor=default;html=1;" parent="1" source="cMItMVhZmOPaR7eOhh5o-36" target="cMItMVhZmOPaR7eOhh5o-38" edge="1">
          <mxGeometry relative="1" as="geometry" />
        </mxCell>
        <mxCell id="cMItMVhZmOPaR7eOhh5o-36" value="" style="rhombus;rounded=0;fontColor=#ffffff;labelBackgroundColor=none;textShadow=0;labelBorderColor=default;whiteSpace=wrap;html=1;fillColor=#6d8764;strokeColor=#3A5431;" parent="1" vertex="1">
          <mxGeometry x="427" y="680" width="66" height="60" as="geometry" />
        </mxCell>
        <mxCell id="cMItMVhZmOPaR7eOhh5o-42" style="edgeStyle=orthogonalEdgeStyle;rounded=0;orthogonalLoop=1;jettySize=auto;html=1;entryX=0;entryY=0.5;entryDx=0;entryDy=0;" parent="1" source="cMItMVhZmOPaR7eOhh5o-38" target="cMItMVhZmOPaR7eOhh5o-2" edge="1">
          <mxGeometry relative="1" as="geometry">
            <Array as="points">
              <mxPoint x="150" y="760" />
              <mxPoint x="150" y="120" />
            </Array>
          </mxGeometry>
        </mxCell>
        <mxCell id="cMItMVhZmOPaR7eOhh5o-38" value="mensagem de erro" style="rounded=0;fontColor=default;labelBackgroundColor=none;textShadow=0;labelBorderColor=none;fillColor=#76608a;strokeColor=#432D57;whiteSpace=wrap;html=1;" parent="1" vertex="1">
          <mxGeometry x="260" y="730" width="120" height="60" as="geometry" />
        </mxCell>
        <mxCell id="cMItMVhZmOPaR7eOhh5o-48" value="preenchido" style="edgeStyle=orthogonalEdgeStyle;rounded=0;orthogonalLoop=1;jettySize=auto;entryX=0.5;entryY=0;entryDx=0;entryDy=0;fontColor=default;labelBackgroundColor=none;textShadow=0;labelBorderColor=default;html=1;" parent="1" source="cMItMVhZmOPaR7eOhh5o-39" target="cMItMVhZmOPaR7eOhh5o-45" edge="1">
          <mxGeometry relative="1" as="geometry" />
        </mxCell>
        <mxCell id="cMItMVhZmOPaR7eOhh5o-39" value="unidade do erro" style="rounded=0;fontColor=default;labelBackgroundColor=none;textShadow=0;labelBorderColor=default;fillColor=#76608a;strokeColor=#432D57;whiteSpace=wrap;html=1;" parent="1" vertex="1">
          <mxGeometry x="540" y="730" width="120" height="60" as="geometry" />
        </mxCell>
        <mxCell id="cMItMVhZmOPaR7eOhh5o-43" value="sim" style="edgeStyle=orthogonalEdgeStyle;rounded=0;orthogonalLoop=1;jettySize=auto;entryX=0.5;entryY=0;entryDx=0;entryDy=0;fontColor=default;labelBackgroundColor=none;textShadow=0;labelBorderColor=default;html=1;" parent="1" source="cMItMVhZmOPaR7eOhh5o-45" target="yuVx5asPF193CAsE93iu-8" edge="1">
          <mxGeometry relative="1" as="geometry">
            <mxPoint x="600" y="870.0000000000002" as="targetPoint" />
          </mxGeometry>
        </mxCell>
        <mxCell id="cMItMVhZmOPaR7eOhh5o-44" value="não" style="edgeStyle=orthogonalEdgeStyle;rounded=0;orthogonalLoop=1;jettySize=auto;fontColor=default;labelBackgroundColor=none;textShadow=0;labelBorderColor=default;html=1;" parent="1" source="cMItMVhZmOPaR7eOhh5o-45" target="cMItMVhZmOPaR7eOhh5o-38" edge="1">
          <mxGeometry relative="1" as="geometry">
            <mxPoint x="314" y="860" as="targetPoint" />
            <Array as="points">
              <mxPoint x="320" y="840" />
            </Array>
          </mxGeometry>
        </mxCell>
        <mxCell id="cMItMVhZmOPaR7eOhh5o-45" value="" style="rhombus;rounded=0;fontColor=#ffffff;labelBackgroundColor=none;textShadow=0;labelBorderColor=default;whiteSpace=wrap;html=1;fillColor=#6d8764;strokeColor=#3A5431;" parent="1" vertex="1">
          <mxGeometry x="421" y="810" width="66" height="60" as="geometry" />
        </mxCell>
        <mxCell id="H5FVqG6aXk-Xzx4JDGbN-5" style="edgeStyle=orthogonalEdgeStyle;rounded=0;orthogonalLoop=1;jettySize=auto;html=1;" parent="1" source="yuVx5asPF193CAsE93iu-8" target="yuVx5asPF193CAsE93iu-16" edge="1">
          <mxGeometry relative="1" as="geometry" />
        </mxCell>
        <mxCell id="yuVx5asPF193CAsE93iu-8" value="gravar sucesso" style="rounded=0;fontColor=default;labelBackgroundColor=none;textShadow=0;labelBorderColor=default;fillColor=#76608a;strokeColor=#432D57;whiteSpace=wrap;html=1;" parent="1" vertex="1">
          <mxGeometry x="394" y="930" width="120" height="51" as="geometry" />
        </mxCell>
        <mxCell id="yuVx5asPF193CAsE93iu-16" value="" style="ellipse;whiteSpace=wrap;html=1;aspect=fixed;fillColor=#6d8764;strokeColor=#3A5431;fontColor=#ffffff;" parent="1" vertex="1">
          <mxGeometry x="430" y="1050" width="50" height="50" as="geometry" />
        </mxCell>
      </root>
    </mxGraphModel>
  </diagram>
</mxfile>
